#!OML:ASF I:\Actors\actors\Patient Classification 1\Patient 1\Session 1\Subject1.ASF
:FULLY-SPECIFIED
:DEGREES
932
root 0.88802 17.5972 8.05223 7.48868 -3.62544 -9.64049
lowerback 12.7294 1.83801 7.56564
upperback -9.00744 4.27127 1.17539
thorax -17.1044 1.14207 -4.03821
lowerneck -17.6492 -6.84309 -4.42069
upperneck 16.1688 -10.5198 10.9438
head 8.82074 -4.13626 3.03966
rclavicle 1.78906e-014 7.4743e-014
rhumerus -35.9168 39.7772 -119.385
rradius 90.1761
rwrist 22.5798
rhand -26.2149 -27.2692
rfingers 7.12502
rthumb 0.338216 -777.249
lclavicle 1.78906e-014 7.4743e-014
lhumerus -207.826 -149.238 290.089
lradius 57.187
lwrist 18.6929
lhand -25.4803 -22.1748
lfingers 7.12502
lthumb 1.04771 7.8024
rfemur -10.8509 18.849 25.7915
rtibia 13.2647
rfoot -13.2066 -14.9567
rtoes -2.23788
lfemur -2.42192 -25.4916 -6.17519
ltibia 2.46096
lfoot -12.3069 36.5324
ltoes -1.78397
933
root 0.888468 17.5984 8.05766 7.40923 -3.66838 -9.5029
lowerback 13.0011 1.84745 7.44662
upperback -9.00445 4.27874 1.11802
thorax -17.2795 1.1442 -4.056
lowerneck -17.7827 -6.87703 -4.48758
upperneck 16.2296 -10.5677 11.007
head 8.87725 -4.14917 3.06188
rclavicle -1.48592e-014 -2.18663e-014
rhumerus -36.5892 38.1643 -118.915
rradius 87.9335
rwrist 23.3198
rhand -27.2431 -27.8373
rfingers 7.12502
rthumb -0.654895 -777.816
lclavicle -1.48592e-014 -2.18663e-014
lhumerus -208.736 -149.952 289.867
lradius 56.3566
lwrist 18.8767
lhand -26.2602 -21.4483
lfingers 7.12502
lthumb 0.294403 8.53126
rfemur -10.7783 18.9828 25.6559
rtibia 13.332
rfoot -13.2854 -15.0614
rtoes -2.23836
lfemur -2.22077 -25.5588 -6.43482
ltibia 2.34285
lfoot -12.2811 36.6126
ltoes -1.82506
934
root 0.888573 17.6 8.06006 7.32417 -3.74177 -9.41228
lowerback 13.3245 1.86709 7.30724
upperback -8.98909 4.30828 1.11858
thorax -17.477 1.16277 -4.00445
lowerneck -17.8131 -6.85552 -4.626
upperneck 16.1407 -10.5047 11.0787
head 8.85898 -4.12305 3.11678
rclavicle -8.15017e-015 2.50469e-014
rhumerus -37.2034 36.5923 -118.298
rradius 85.5778
rwrist 23.837
rhand -28.1525 -28.3023
rfingers 7.12502
rthumb -1.53322 -778.277
lclavicle -8.15017e-015 2.50469e-014
lhumerus -209.653 -150.784 289.704
lradius 55.7032
lwrist 19.6285
lhand -27.4977 -21.0972
lfingers 7.12502
lthumb -0.900819 8.88066
rfemur -10.7331 19.0722 25.5881
rtibia 13.4524
rfoot -13.3109 -15.1225
rtoes -2.52753
lfemur -2.01413 -25.5362 -6.6326
ltibia 2.23205
lfoot -12.251 36.6383
ltoes -1.87682
935
root 0.914284 17.5884 8.06393 7.53758 -2.59358 -9.2987
lowerback 13.1317 1.46974 7.87768
upperback -9.06986 3.86 1.0395
thorax -17.4793 0.883443 -4.28622
lowerneck -17.7681 -6.91627 -4.8971
upperneck 15.9181 -10.5227 11.2224
head 8.80038 -4.14325 3.2069
rclavicle 2.6339e-014 1.59028e-015
rhumerus -37.9185 34.9754 -117.64
rradius 83.1679
rwrist 23.9973
rhand -28.8712 -28.6403
rfingers 7.12502
rthumb -2.22728 -778.608
lclavicle 2.6339e-014 1.59028e-015
lhumerus -210.683 -151.64 289.664
lradius 54.9552
lwrist 19.9891
lhand -29.3774 -21.9808
lfingers 7.12502
lthumb -2.71617 7.98166
rfemur -10.923 18.4318 25.2953
rtibia 13.2979
rfoot -13.3689 -15.6672
rtoes -2.6476
lfemur -3.08866 -25.7161 -6.38918
ltibia 2.77015
lfoot -11.834 35.8335
ltoes -2.68385
936
root 0.924881 17.5821 8.06919 7.61558 -2.23526 -9.33355
lowerback 13.1297 1.33834 8.10843
upperback -9.08607 3.73237 1.05259
thorax -17.5091 0.797094 -4.36629
lowerneck -17.8323 -6.95961 -5.03773
upperneck 15.8387 -10.5449 11.2715
head 8.79745 -4.15763 3.24118
rclavicle 1.98785e-016 1.70955e-014
rhumerus -38.6479 33.3301 -117.014
rradius 80.6707
rwrist 23.8994
rhand -29.2806 -29.3902
rfingers 7.12502
rthumb -2.62269 -779.354
lclavicle 1.98785e-016 1.70955e-014
lhumerus -211.697 -152.685 289.525
lradius 54.2334
lwrist 19.9794
lhand -30.7673 -22.5426
lfingers 7.12502
lthumb -4.05847 7.3985
rfemur -11.0097 18.2514 25.2789
rtibia 13.3145
rfoot -13.4273 -15.8272
rtoes -2.58531
lfemur -3.41278 -25.7427 -6.2306
ltibia 2.91426
lfoot -11.7082 35.5611
ltoes -2.99953
937
root 0.928003 17.5817 8.07425 7.62421 -2.26122 -9.3695
lowerback 13.2518 1.32497 8.10803
upperback -9.05931 3.73045 1.08509
thorax -17.5585 0.796604 -4.33369
lowerneck -17.8977 -6.96113 -4.9952
upperneck 15.7077 -10.5318 11.2322
head 8.75865 -4.15492 3.22074
rclavicle -1.98785e-015 1.31198e-014
rhumerus -39.395 31.7625 -116.457
rradius 78.1811
rwrist 22.9255
rhand -29.3883 -30.1953
rfingers 7.12502
rthumb -2.72674 -780.158
lclavicle -1.98785e-015 1.31198e-014
lhumerus -212.629 -153.961 289.193
lradius 53.6928
lwrist 19.9115
lhand -31.2754 -22.2785
lfingers 7.12502
lthumb -4.54904 7.65269
rfemur -11.0327 18.2802 25.3163
rtibia 13.3885
rfoot -13.4979 -15.7923
rtoes -2.28358
lfemur -3.39398 -25.6367 -6.20711
ltibia 2.91398
lfoot -11.6244 35.5121
ltoes -3.35517
938
root 0.931565 17.583 8.07921 7.64836 -2.29378 -9.31847
lowerback 13.3676 1.33779 8.07408
upperback -9.03095 3.74669 1.05539
thorax -17.5954 0.803516 -4.35899
lowerneck -17.9204 -6.98344 -4.95874
upperneck 15.4855 -10.5525 11.2675
head 8.68977 -4.16566 3.22234
rclavicle 4.77083e-015 -4.13472e-014
rhumerus -40.2011 30.2501 -115.93
rradius 75.8476
rwrist 20.6699
rhand -29.1792 -30.8417
rfingers 7.12502
rthumb -2.52479 -780.807
lclavicle 4.77083e-015 -4.13472e-014
lhumerus -213.652 -155.04 288.859
lradius 53.2511
lwrist 19.9229
lhand -31.6557 -22.0214
lfingers 7.12502
lthumb -4.9163 7.90154
rfemur -11.0604 18.2941 25.2409
rtibia 13.4246
rfoot -13.5476 -15.766
rtoes -2.02143
lfemur -3.41799 -25.5411 -6.28779
ltibia 2.96416
lfoot -11.6322 35.454
ltoes -3.46598
939
root 0.935609 17.5836 8.08438 7.70607 -2.32853 -9.32798
lowerback 13.4751 1.37827 8.14431
upperback -9.03304 3.82064 0.999406
thorax -17.6519 0.819642 -4.48864
lowerneck -17.911 -7.0348 -5.01622
upperneck 15.3144 -10.6212 11.4216
head 8.64992 -4.19215 3.27329
rclavicle 1.49089e-016 -1.43125e-014
rhumerus -40.9966 28.2969 -115.333
rradius 73.7447
rwrist 17.9153
rhand -28.83 -31.4849
rfingers 7.12502
rthumb -2.18755 -781.453
lclavicle 1.49089e-016 -1.43125e-014
lhumerus -214.819 -155.853 288.578
lradius 52.866
lwrist 20.1995
lhand -32.232 -21.9987
lfingers 7.12502
lthumb -5.47272 7.91063
rfemur -11.1079 18.3123 25.2179
rtibia 13.4102
rfoot -13.5389 -15.7572
rtoes -1.98045
lfemur -3.47068 -25.4812 -6.26905
ltibia 2.98185
lfoot -11.6894 35.4326
ltoes -3.37837
940
root 0.939431 17.5842 8.09129 7.77763 -2.38224 -9.39749
lowerback 13.5568 1.42319 8.25553
upperback -9.04271 3.91065 0.963997
thorax -17.6985 0.840221 -4.62057
lowerneck -17.8554 -7.07777 -5.08595
upperneck 15.121 -10.6738 11.5783
head 8.59391 -4.21428 3.3304
rclavicle 1.42131e-014 -2.06736e-014
rhumerus -41.6669 25.748 -114.469
rradius 72.1488
rwrist 14.3247
rhand -27.8415 -31.4257
rfingers 7.12502
rthumb -1.23286 -781.402
lclavicle 1.42131e-014 -2.06736e-014
lhumerus -215.963 -156.653 288.221
lradius 52.5481
lwrist 20.6029
lhand -32.5 -21.9673
lfingers 7.12502
lthumb -5.73152 7.93514
rfemur -11.1456 18.3278 25.2694
rtibia 13.3813
rfoot -13.528 -15.7258
rtoes -2.08252
lfemur -3.47614 -25.4248 -6.18297
ltibia 2.92099
lfoot -11.6697 35.4671
ltoes -3.40355
941
root 0.944121 17.5851 8.09931 7.82617 -2.3213 -9.41703
lowerback 13.6103 1.41318 8.35452
upperback -9.03091 3.91849 0.93117
thorax -17.7111 0.827973 -4.71877
lowerneck -17.8199 -7.13382 -5.07383
upperneck 14.8742 -10.7327 11.6126
head 8.51156 -4.248 3.33133
rclavicle 2.56929e-014 2.26615e-014
rhumerus -42.2677 23.6331 -113.54
rradius 70.7068
rwrist 9.82242
rhand -25.8924 -31.2592
rfingers 7.12502
rthumb 0.649668 -781.238
lclavicle 2.56929e-014 2.26615e-014
lhumerus -217.007 -157.428 287.795
lradius 52.2281
lwrist 20.9645
lhand -32.3922 -22.2664
lfingers 7.12502
lthumb -5.62739 7.63893
rfemur -11.1238 18.2809 25.2765
rtibia 13.316
rfoot -13.5446 -15.7463
rtoes -2.2199
lfemur -3.51819 -25.4224 -6.15313
ltibia 2.91264
lfoot -11.6439 35.4405
ltoes -3.44965
942
root 0.949383 17.5859 8.10624 7.87243 -2.14652 -9.40732
lowerback 13.665 1.35941 8.47549
upperback -9.02131 3.86837 0.877588
thorax -17.7338 0.784406 -4.83801
lowerneck -17.7924 -7.19456 -4.94946
upperneck 14.6279 -10.7998 11.5164
head 8.41676 -4.29177 3.26907
rclavicle 3.42904e-015 -1.07344e-014
rhumerus -42.8932 22.6068 -112.855
rradius 68.5394
rwrist 7.22268
rhand -23.3739 -31.663
rfingers 7.12502
rthumb 3.08203 -781.62
lclavicle 3.42904e-015 -1.07344e-014
lhumerus -218.035 -158.168 287.334
lradius 51.8699
lwrist 21.2574
lhand -32.2516 -22.6532
lfingers 7.12502
lthumb -5.49166 7.25565
rfemur -11.0627 18.2332 25.2547
rtibia 13.1579
rfoot -13.4922 -15.8885
rtoes -2.35561
lfemur -3.65457 -25.4618 -6.11866
ltibia 2.97375
lfoot -11.57 35.3164
ltoes -3.66674
